<svg id="svg" version="1.1" xmlns="http://www.w3.org/2000/svg" xmlns:xlink="http://www.w3.org/1999/xlink" width="400" height="439.1588107324148" viewBox="0, 0, 400,439.1588107324148"><g id="svgg"><path id="path0" d="M354.170 8.752 C 349.782 10.656,341.494 14.243,335.751 16.721 C 318.141 24.321,304.197 31.511,291.951 39.306 C 237.683 73.848,198.548 126.446,180.824 188.664 C 178.880 195.486,178.673 194.390,182.772 198.985 C 225.468 246.849,251.151 312.105,251.194 372.832 L 251.197 376.845 256.221 374.236 C 376.152 311.946,429.022 168.901,378.553 43.250 C 377.151 39.760,362.354 5.455,362.195 5.327 C 362.168 5.306,358.557 6.847,354.170 8.752 M319.894 119.766 C 319.309 121.330,260.055 253.770,259.975 253.690 C 259.756 253.471,262.668 232.514,264.130 223.785 C 271.120 182.055,288.467 148.015,315.301 123.373 C 319.142 119.846,320.163 119.044,319.894 119.766 M7.540 121.606 C 7.540 121.967,6.894 129.964,6.105 139.376 C 3.391 171.781,3.329 187.172,5.831 207.832 C 19.688 322.287,109.239 414.830,223.060 432.318 C 229.977 433.381,235.792 434.065,236.015 433.843 C 236.308 433.550,239.226 397.945,239.620 389.848 C 246.084 257.245,146.278 138.497,14.358 121.836 C 11.806 121.513,9.228 121.182,8.629 121.100 C 7.649 120.965,7.542 121.015,7.540 121.606 M80.972 208.633 C 99.831 228.040,103.723 232.592,111.539 244.380 C 126.329 266.688,131.690 278.353,137.202 300.218 C 139.472 309.218,141.578 323.559,141.214 327.536 C 141.127 328.492,108.835 269.249,73.011 202.411 C 72.086 200.686,71.453 199.275,71.604 199.275 C 71.755 199.275,75.970 203.486,80.972 208.633 " stroke="none" fill="current" fill-rule="evenodd"></path><path id="path1" d="M353.590 8.306 C 349.043 10.297,340.493 14.018,334.590 16.575 C 309.673 27.369,293.268 36.623,275.412 49.959 C 228.514 84.983,195.612 133.347,179.576 190.830 L 178.412 195.002 179.489 196.230 C 190.525 208.814,195.362 214.838,202.104 224.396 C 231.907 266.640,249.237 318.828,250.521 370.196 C 250.624 374.304,250.774 377.665,250.854 377.665 C 251.194 377.665,261.579 372.138,265.972 369.619 C 377.664 305.583,426.583 170.277,381.669 49.610 C 378.037 39.851,362.881 4.813,362.259 4.736 C 362.038 4.708,358.136 6.315,353.590 8.306 M369.466 21.630 C 373.344 30.553,377.744 40.921,379.244 44.670 C 429.033 169.139,375.696 312.334,256.480 374.251 C 253.717 375.687,251.415 376.813,251.366 376.755 C 251.316 376.697,251.125 373.047,250.940 368.645 C 248.265 304.806,225.015 246.916,183.000 199.482 L 178.944 194.903 179.824 191.603 C 197.986 123.548,243.673 65.283,305.824 30.914 C 315.418 25.609,360.865 4.958,362.136 5.326 C 362.289 5.371,365.588 12.708,369.466 21.630 M316.154 122.806 C 300.498 136.930,287.243 155.362,278.924 174.580 C 269.923 195.371,266.274 209.135,262.227 237.563 C 260.177 251.966,260.010 253.464,260.602 252.212 C 262.308 248.601,319.627 119.965,319.560 119.898 C 319.512 119.851,317.980 121.159,316.154 122.806 M5.549 138.869 C 2.914 170.892,2.745 183.055,4.665 202.466 C 16.665 323.794,113.180 421.241,234.431 434.452 L 236.666 434.696 236.833 433.229 C 238.321 420.191,240.465 387.968,240.461 378.710 C 240.407 252.418,148.830 144.010,24.192 122.693 C 19.831 121.948,8.478 120.377,7.447 120.377 C 7.157 120.377,6.717 124.663,5.549 138.869 M17.839 122.153 C 150.095 141.073,248.083 261.091,239.594 393.764 C 239.256 399.041,236.380 434.051,236.275 434.160 C 236.109 434.332,224.263 432.705,218.709 431.747 C 94.818 410.381,3.803 302.235,3.778 176.360 C 3.776 167.376,6.195 131.360,7.419 122.155 L 7.588 120.887 9.668 121.084 C 10.812 121.193,14.489 121.674,17.839 122.153 M311.347 137.418 C 307.449 146.153,294.573 175.005,282.735 201.534 C 270.897 228.063,261.169 249.642,261.118 249.488 C 260.710 248.265,265.625 217.525,267.615 208.847 C 269.311 201.457,274.813 185.400,279.080 175.387 C 285.626 160.030,295.462 145.098,308.035 131.432 C 310.597 128.646,317.995 121.537,318.331 121.537 C 318.389 121.537,315.246 128.684,311.347 137.418 M71.735 199.710 C 71.926 200.122,140.689 327.536,141.005 328.064 C 141.165 328.331,141.201 327.604,141.099 326.178 C 138.276 286.811,122.017 252.233,90.645 218.878 C 85.607 213.521,71.517 199.239,71.735 199.710 M88.215 217.059 C 102.349 231.849,108.988 240.517,118.930 257.161 C 131.558 278.302,138.506 299.948,140.525 324.438 C 140.691 326.450,140.688 326.461,140.210 325.598 C 138.880 323.198,74.850 204.497,74.415 203.626 C 73.815 202.423,79.728 208.178,88.215 217.059 " stroke="none" fill="current" fill-rule="evenodd"></path><path id="path2" d="M251.033 71.139 L 250.181 72.081 251.124 71.229 C 251.642 70.761,252.067 70.336,252.067 70.287 C 252.067 70.062,251.827 70.260,251.033 71.139 M243.201 78.970 L 242.350 79.913 243.292 79.061 C 243.811 78.592,244.235 78.168,244.235 78.118 C 244.235 77.894,243.996 78.092,243.201 78.970 M310.497 127.991 L 309.645 128.934 310.587 128.082 C 311.106 127.613,311.530 127.189,311.530 127.139 C 311.530 126.915,311.291 127.113,310.497 127.991 M397.793 141.262 C 397.793 143.416,397.839 144.297,397.895 143.220 C 397.950 142.143,397.950 140.381,397.895 139.304 C 397.839 138.227,397.793 139.108,397.793 141.262 M397.457 153.445 C 397.457 154.003,397.516 154.231,397.589 153.952 C 397.662 153.673,397.662 153.216,397.589 152.937 C 397.516 152.658,397.457 152.886,397.457 153.445 M3.858 169.398 C 3.858 170.276,3.912 170.635,3.979 170.196 C 4.045 169.757,4.045 169.039,3.979 168.600 C 3.912 168.162,3.858 168.521,3.858 169.398 M3.854 183.466 C 3.856 184.264,3.912 184.556,3.979 184.115 C 4.046 183.674,4.044 183.021,3.975 182.665 C 3.906 182.308,3.852 182.669,3.854 183.466 M84.844 212.908 C 85.467 213.546,86.042 214.068,86.122 214.068 C 86.202 214.068,85.757 213.546,85.134 212.908 C 84.511 212.270,83.936 211.748,83.856 211.748 C 83.776 211.748,84.221 212.270,84.844 212.908 M320.812 327.049 C 319.624 328.245,318.716 329.224,318.796 329.224 C 318.876 329.224,319.914 328.245,321.102 327.049 C 322.291 325.852,323.198 324.873,323.118 324.873 C 323.038 324.873,322.001 325.852,320.812 327.049 M74.837 354.551 C 74.837 354.600,75.261 355.025,75.780 355.493 L 76.722 356.345 75.870 355.402 C 75.076 354.524,74.837 354.326,74.837 354.551 M83.829 363.543 C 83.829 363.592,84.253 364.017,84.772 364.485 L 85.714 365.337 84.862 364.394 C 84.068 363.516,83.829 363.318,83.829 363.543 M239.661 367.513 C 239.661 368.071,239.721 368.299,239.794 368.020 C 239.867 367.741,239.867 367.284,239.794 367.005 C 239.721 366.726,239.661 366.954,239.661 367.513 M250.985 369.833 C 250.985 370.551,251.042 370.845,251.111 370.486 C 251.180 370.127,251.180 369.540,251.111 369.181 C 251.042 368.822,250.985 369.115,250.985 369.833 M239.661 390.138 C 239.661 390.696,239.721 390.925,239.794 390.645 C 239.867 390.366,239.867 389.909,239.794 389.630 C 239.721 389.351,239.661 389.579,239.661 390.138 " stroke="none" fill="current" fill-rule="evenodd"></path><path id="path3" d="M247.130 75.054 L 244.090 78.173 247.208 75.132 C 248.923 73.460,250.326 72.057,250.326 72.014 C 250.326 71.804,249.955 72.158,247.130 75.054 M312.237 126.251 L 311.385 127.194 312.328 126.342 C 312.846 125.873,313.270 125.449,313.270 125.399 C 313.270 125.175,313.031 125.372,312.237 126.251 M308.756 129.732 L 307.904 130.674 308.847 129.822 C 309.726 129.028,309.923 128.789,309.699 128.789 C 309.649 128.789,309.225 129.213,308.756 129.732 M86.149 214.159 C 86.149 214.209,86.574 214.633,87.092 215.102 L 88.035 215.954 87.183 215.011 C 86.389 214.132,86.149 213.935,86.149 214.159 M77.725 357.433 C 78.437 358.191,79.057 358.811,79.103 358.811 C 79.321 358.811,79.091 358.550,77.810 357.348 L 76.432 356.055 77.725 357.433 M82.366 362.074 C 83.078 362.832,83.698 363.452,83.744 363.452 C 83.962 363.452,83.732 363.191,82.451 361.989 L 81.073 360.696 82.366 362.074 " stroke="none" fill="current" fill-rule="evenodd"></path><path id="path4" d="M397.457 130.819 C 397.457 131.378,397.516 131.606,397.589 131.327 C 397.662 131.048,397.662 130.591,397.589 130.312 C 397.516 130.033,397.457 130.261,397.457 130.819 M397.457 151.704 C 397.457 152.263,397.516 152.491,397.589 152.212 C 397.662 151.933,397.662 151.476,397.589 151.197 C 397.516 150.917,397.457 151.146,397.457 151.704 M3.892 176.360 C 3.892 179.471,3.935 180.743,3.987 179.188 C 4.039 177.632,4.039 175.087,3.987 173.532 C 3.935 171.976,3.892 173.249,3.892 176.360 M158.956 190.954 C 158.956 191.004,159.380 191.428,159.898 191.896 L 160.841 192.748 159.989 191.806 C 159.195 190.927,158.956 190.730,158.956 190.954 M166.497 198.495 C 166.497 198.545,166.922 198.970,167.440 199.438 L 168.383 200.290 167.531 199.347 C 166.737 198.469,166.497 198.271,166.497 198.495 M75.852 203.626 C 78.241 206.019,80.261 207.977,80.341 207.977 C 80.421 207.977,78.531 206.019,76.142 203.626 C 73.753 201.233,71.733 199.275,71.653 199.275 C 71.574 199.275,73.463 201.233,75.852 203.626 M80.058 359.826 C 80.599 360.384,81.107 360.841,81.187 360.841 C 81.267 360.841,80.889 360.384,80.348 359.826 C 79.807 359.268,79.299 358.811,79.219 358.811 C 79.139 358.811,79.517 359.268,80.058 359.826 M250.974 367.803 C 250.974 368.361,251.033 368.590,251.106 368.310 C 251.179 368.031,251.179 367.574,251.106 367.295 C 251.033 367.016,250.974 367.244,250.974 367.803 M239.667 369.398 C 239.670 370.036,239.730 370.263,239.799 369.902 C 239.868 369.542,239.866 369.019,239.793 368.742 C 239.721 368.465,239.664 368.760,239.667 369.398 M239.667 388.252 C 239.670 388.891,239.730 389.117,239.799 388.757 C 239.868 388.396,239.866 387.874,239.793 387.596 C 239.721 387.319,239.664 387.614,239.667 388.252 " stroke="none" fill="current" fill-rule="evenodd"></path></g></svg>
